<mxfile host="app.diagrams.net" modified="2023-05-30T23:23:28.029Z" agent="Mozilla/5.0 (Macintosh; Intel Mac OS X 10_15_7) AppleWebKit/605.1.15 (KHTML, like Gecko) Version/16.3 Safari/605.1.15" etag="6Z5aAz9tElga1SKGLg-V" version="21.2.3" type="device">
  <diagram name="PÃ¡gina-1" id="7aKSM4hqYWfp0iXhSrHJ">
    <mxGraphModel dx="1122" dy="662" grid="1" gridSize="10" guides="1" tooltips="1" connect="1" arrows="1" fold="1" page="1" pageScale="1" pageWidth="827" pageHeight="1169" math="0" shadow="0">
      <root>
        <mxCell id="0" />
        <mxCell id="1" parent="0" />
        <mxCell id="kJlHELFwxVph0XKdCQQY-6" value="" style="rounded=0;whiteSpace=wrap;html=1;" vertex="1" parent="1">
          <mxGeometry x="540" y="115" width="740" height="400" as="geometry" />
        </mxCell>
        <mxCell id="kJlHELFwxVph0XKdCQQY-61" style="edgeStyle=orthogonalEdgeStyle;rounded=0;orthogonalLoop=1;jettySize=auto;html=1;entryX=0.07;entryY=0.4;entryDx=0;entryDy=0;entryPerimeter=0;startArrow=classic;startFill=1;" edge="1" parent="1" source="kJlHELFwxVph0XKdCQQY-1" target="kJlHELFwxVph0XKdCQQY-5">
          <mxGeometry relative="1" as="geometry">
            <Array as="points">
              <mxPoint x="140" y="200" />
              <mxPoint x="140" y="259" />
            </Array>
          </mxGeometry>
        </mxCell>
        <mxCell id="kJlHELFwxVph0XKdCQQY-1" value="Usuario" style="shape=umlActor;verticalLabelPosition=bottom;verticalAlign=top;html=1;outlineConnect=0;" vertex="1" parent="1">
          <mxGeometry x="90" y="170" width="30" height="60" as="geometry" />
        </mxCell>
        <mxCell id="kJlHELFwxVph0XKdCQQY-62" style="edgeStyle=orthogonalEdgeStyle;rounded=0;orthogonalLoop=1;jettySize=auto;html=1;entryX=0.07;entryY=0.4;entryDx=0;entryDy=0;entryPerimeter=0;" edge="1" parent="1" source="kJlHELFwxVph0XKdCQQY-2" target="kJlHELFwxVph0XKdCQQY-5">
          <mxGeometry relative="1" as="geometry" />
        </mxCell>
        <mxCell id="kJlHELFwxVph0XKdCQQY-2" value="" style="ellipse;whiteSpace=wrap;html=1;aspect=fixed;" vertex="1" parent="1">
          <mxGeometry x="90" y="268" width="30" height="30" as="geometry" />
        </mxCell>
        <mxCell id="kJlHELFwxVph0XKdCQQY-63" style="edgeStyle=orthogonalEdgeStyle;rounded=0;orthogonalLoop=1;jettySize=auto;html=1;entryX=0.07;entryY=0.4;entryDx=0;entryDy=0;entryPerimeter=0;" edge="1" parent="1" source="kJlHELFwxVph0XKdCQQY-3" target="kJlHELFwxVph0XKdCQQY-5">
          <mxGeometry relative="1" as="geometry">
            <Array as="points">
              <mxPoint x="140" y="323" />
              <mxPoint x="140" y="259" />
            </Array>
          </mxGeometry>
        </mxCell>
        <mxCell id="kJlHELFwxVph0XKdCQQY-3" value="" style="ellipse;whiteSpace=wrap;html=1;aspect=fixed;" vertex="1" parent="1">
          <mxGeometry x="90" y="308" width="30" height="30" as="geometry" />
        </mxCell>
        <mxCell id="kJlHELFwxVph0XKdCQQY-64" style="edgeStyle=orthogonalEdgeStyle;rounded=0;orthogonalLoop=1;jettySize=auto;html=1;entryX=0.07;entryY=0.4;entryDx=0;entryDy=0;entryPerimeter=0;" edge="1" parent="1" source="kJlHELFwxVph0XKdCQQY-4" target="kJlHELFwxVph0XKdCQQY-5">
          <mxGeometry relative="1" as="geometry">
            <Array as="points">
              <mxPoint x="140" y="363" />
              <mxPoint x="140" y="259" />
            </Array>
          </mxGeometry>
        </mxCell>
        <mxCell id="kJlHELFwxVph0XKdCQQY-4" value="" style="ellipse;whiteSpace=wrap;html=1;aspect=fixed;" vertex="1" parent="1">
          <mxGeometry x="90" y="348" width="30" height="30" as="geometry" />
        </mxCell>
        <mxCell id="kJlHELFwxVph0XKdCQQY-60" style="edgeStyle=orthogonalEdgeStyle;rounded=0;orthogonalLoop=1;jettySize=auto;html=1;entryX=0;entryY=0.5;entryDx=0;entryDy=0;" edge="1" parent="1" source="kJlHELFwxVph0XKdCQQY-5" target="kJlHELFwxVph0XKdCQQY-7">
          <mxGeometry relative="1" as="geometry" />
        </mxCell>
        <mxCell id="kJlHELFwxVph0XKdCQQY-5" value="Internet" style="ellipse;shape=cloud;whiteSpace=wrap;html=1;" vertex="1" parent="1">
          <mxGeometry x="160" y="195" width="220" height="160" as="geometry" />
        </mxCell>
        <mxCell id="kJlHELFwxVph0XKdCQQY-18" style="edgeStyle=orthogonalEdgeStyle;rounded=0;orthogonalLoop=1;jettySize=auto;html=1;entryX=0;entryY=0.5;entryDx=0;entryDy=0;endArrow=none;endFill=0;" edge="1" parent="1" source="kJlHELFwxVph0XKdCQQY-7" target="kJlHELFwxVph0XKdCQQY-24">
          <mxGeometry relative="1" as="geometry">
            <Array as="points">
              <mxPoint x="580" y="275" />
            </Array>
          </mxGeometry>
        </mxCell>
        <mxCell id="kJlHELFwxVph0XKdCQQY-22" style="edgeStyle=orthogonalEdgeStyle;rounded=0;orthogonalLoop=1;jettySize=auto;html=1;entryX=0;entryY=0.5;entryDx=0;entryDy=0;endArrow=none;endFill=0;startArrow=classic;startFill=1;exitX=1;exitY=0.5;exitDx=0;exitDy=0;" edge="1" parent="1" source="kJlHELFwxVph0XKdCQQY-7">
          <mxGeometry relative="1" as="geometry">
            <mxPoint x="500.8571428571429" y="275" as="sourcePoint" />
            <mxPoint x="580" y="275" as="targetPoint" />
            <Array as="points" />
          </mxGeometry>
        </mxCell>
        <mxCell id="kJlHELFwxVph0XKdCQQY-7" value="Api Gateway" style="triangle;whiteSpace=wrap;html=1;" vertex="1" parent="1">
          <mxGeometry x="414" y="222.5" width="96" height="105" as="geometry" />
        </mxCell>
        <mxCell id="kJlHELFwxVph0XKdCQQY-49" style="edgeStyle=orthogonalEdgeStyle;rounded=0;orthogonalLoop=1;jettySize=auto;html=1;entryX=0;entryY=0;entryDx=40;entryDy=0;entryPerimeter=0;" edge="1" parent="1" source="kJlHELFwxVph0XKdCQQY-10" target="kJlHELFwxVph0XKdCQQY-48">
          <mxGeometry relative="1" as="geometry" />
        </mxCell>
        <mxCell id="kJlHELFwxVph0XKdCQQY-10" value="Base de datos" style="shape=cylinder3;whiteSpace=wrap;html=1;boundedLbl=1;backgroundOutline=1;size=6;" vertex="1" parent="1">
          <mxGeometry x="1000" y="240" width="60" height="80" as="geometry" />
        </mxCell>
        <mxCell id="kJlHELFwxVph0XKdCQQY-12" value="Productor" style="rounded=0;whiteSpace=wrap;html=1;" vertex="1" parent="1">
          <mxGeometry x="765" y="150" width="80" height="40" as="geometry" />
        </mxCell>
        <mxCell id="kJlHELFwxVph0XKdCQQY-17" style="edgeStyle=orthogonalEdgeStyle;rounded=0;orthogonalLoop=1;jettySize=auto;html=1;entryX=0.5;entryY=0;entryDx=0;entryDy=0;entryPerimeter=0;" edge="1" parent="1" source="kJlHELFwxVph0XKdCQQY-13" target="kJlHELFwxVph0XKdCQQY-10">
          <mxGeometry relative="1" as="geometry" />
        </mxCell>
        <mxCell id="kJlHELFwxVph0XKdCQQY-13" value="Consumidor" style="rounded=0;whiteSpace=wrap;html=1;" vertex="1" parent="1">
          <mxGeometry x="990" y="150" width="80" height="40" as="geometry" />
        </mxCell>
        <mxCell id="kJlHELFwxVph0XKdCQQY-16" value="" style="sketch=0;aspect=fixed;pointerEvents=1;shadow=0;dashed=0;html=1;strokeColor=none;labelPosition=center;verticalLabelPosition=bottom;verticalAlign=top;align=center;fillColor=#00188D;shape=mxgraph.azure.queue_generic" vertex="1" parent="1">
          <mxGeometry x="870" y="156.5" width="90" height="27" as="geometry" />
        </mxCell>
        <mxCell id="kJlHELFwxVph0XKdCQQY-23" style="edgeStyle=orthogonalEdgeStyle;rounded=0;orthogonalLoop=1;jettySize=auto;html=1;entryX=0;entryY=0.5;entryDx=0;entryDy=0;entryPerimeter=0;startArrow=classic;startFill=1;" edge="1" parent="1" source="kJlHELFwxVph0XKdCQQY-21" target="kJlHELFwxVph0XKdCQQY-10">
          <mxGeometry relative="1" as="geometry" />
        </mxCell>
        <mxCell id="kJlHELFwxVph0XKdCQQY-21" value="DataRetrieval&lt;br&gt;Service" style="shape=cube;whiteSpace=wrap;html=1;boundedLbl=1;backgroundOutline=1;darkOpacity=0.05;darkOpacity2=0.1;size=10;" vertex="1" parent="1">
          <mxGeometry x="765" y="240" width="90" height="80" as="geometry" />
        </mxCell>
        <mxCell id="kJlHELFwxVph0XKdCQQY-25" style="edgeStyle=orthogonalEdgeStyle;rounded=0;orthogonalLoop=1;jettySize=auto;html=1;entryX=0;entryY=0.5;entryDx=0;entryDy=0;" edge="1" parent="1" source="kJlHELFwxVph0XKdCQQY-24" target="kJlHELFwxVph0XKdCQQY-12">
          <mxGeometry relative="1" as="geometry" />
        </mxCell>
        <mxCell id="kJlHELFwxVph0XKdCQQY-26" style="edgeStyle=orthogonalEdgeStyle;rounded=0;orthogonalLoop=1;jettySize=auto;html=1;entryX=0;entryY=0;entryDx=0;entryDy=35;entryPerimeter=0;" edge="1" parent="1" source="kJlHELFwxVph0XKdCQQY-24" target="kJlHELFwxVph0XKdCQQY-21">
          <mxGeometry relative="1" as="geometry" />
        </mxCell>
        <mxCell id="kJlHELFwxVph0XKdCQQY-45" style="edgeStyle=orthogonalEdgeStyle;rounded=0;orthogonalLoop=1;jettySize=auto;html=1;entryX=0;entryY=0;entryDx=40;entryDy=0;entryPerimeter=0;" edge="1" parent="1" source="kJlHELFwxVph0XKdCQQY-24" target="kJlHELFwxVph0XKdCQQY-43">
          <mxGeometry relative="1" as="geometry" />
        </mxCell>
        <mxCell id="kJlHELFwxVph0XKdCQQY-24" value="" style="shape=image;html=1;verticalAlign=top;verticalLabelPosition=bottom;labelBackgroundColor=#ffffff;imageAspect=0;aspect=fixed;image=https://cdn3.iconfinder.com/data/icons/outline-music-1/30/Pause-2-128.png" vertex="1" parent="1">
          <mxGeometry x="580" y="233" width="84" height="84" as="geometry" />
        </mxCell>
        <mxCell id="kJlHELFwxVph0XKdCQQY-42" value="" style="verticalLabelPosition=bottom;verticalAlign=top;html=1;shape=mxgraph.basic.rounded_frame;dx=10;whiteSpace=wrap;rotation=90;" vertex="1" parent="1">
          <mxGeometry x="777.5" y="365" width="75" height="40" as="geometry" />
        </mxCell>
        <mxCell id="kJlHELFwxVph0XKdCQQY-28" value="JWT&lt;br&gt;Service" style="rounded=0;whiteSpace=wrap;html=1;" vertex="1" parent="1">
          <mxGeometry x="787.5" y="380" width="55" height="50" as="geometry" />
        </mxCell>
        <mxCell id="kJlHELFwxVph0XKdCQQY-44" style="edgeStyle=orthogonalEdgeStyle;rounded=0;orthogonalLoop=1;jettySize=auto;html=1;entryX=0;entryY=0.5;entryDx=0;entryDy=0;" edge="1" parent="1" source="kJlHELFwxVph0XKdCQQY-43" target="kJlHELFwxVph0XKdCQQY-28">
          <mxGeometry relative="1" as="geometry" />
        </mxCell>
        <mxCell id="kJlHELFwxVph0XKdCQQY-47" value="" style="edgeStyle=orthogonalEdgeStyle;rounded=0;orthogonalLoop=1;jettySize=auto;html=1;startArrow=classic;startFill=1;" edge="1" parent="1" source="kJlHELFwxVph0XKdCQQY-43" target="kJlHELFwxVph0XKdCQQY-28">
          <mxGeometry relative="1" as="geometry" />
        </mxCell>
        <mxCell id="kJlHELFwxVph0XKdCQQY-43" value="Credential&lt;br&gt;Middleware" style="shape=cube;whiteSpace=wrap;html=1;boundedLbl=1;backgroundOutline=1;darkOpacity=0.05;darkOpacity2=0.1;size=10;" vertex="1" parent="1">
          <mxGeometry x="582" y="365" width="88" height="80" as="geometry" />
        </mxCell>
        <mxCell id="kJlHELFwxVph0XKdCQQY-52" style="edgeStyle=orthogonalEdgeStyle;rounded=0;orthogonalLoop=1;jettySize=auto;html=1;entryX=-0.017;entryY=0.507;entryDx=0;entryDy=0;entryPerimeter=0;" edge="1" parent="1" source="kJlHELFwxVph0XKdCQQY-48" target="kJlHELFwxVph0XKdCQQY-51">
          <mxGeometry relative="1" as="geometry" />
        </mxCell>
        <mxCell id="kJlHELFwxVph0XKdCQQY-48" value="DataAnalysis&lt;br&gt;Service" style="shape=cube;whiteSpace=wrap;html=1;boundedLbl=1;backgroundOutline=1;darkOpacity=0.05;darkOpacity2=0.1;size=10;" vertex="1" parent="1">
          <mxGeometry x="990" y="370" width="90" height="80" as="geometry" />
        </mxCell>
        <mxCell id="kJlHELFwxVph0XKdCQQY-53" style="edgeStyle=orthogonalEdgeStyle;rounded=0;orthogonalLoop=1;jettySize=auto;html=1;" edge="1" parent="1" source="kJlHELFwxVph0XKdCQQY-51" target="kJlHELFwxVph0XKdCQQY-54">
          <mxGeometry relative="1" as="geometry">
            <mxPoint x="1205" y="560" as="targetPoint" />
          </mxGeometry>
        </mxCell>
        <mxCell id="kJlHELFwxVph0XKdCQQY-51" value="EmailSender&lt;br&gt;Service" style="shape=cube;whiteSpace=wrap;html=1;boundedLbl=1;backgroundOutline=1;darkOpacity=0.05;darkOpacity2=0.1;size=10;" vertex="1" parent="1">
          <mxGeometry x="1160" y="370" width="90" height="80" as="geometry" />
        </mxCell>
        <mxCell id="kJlHELFwxVph0XKdCQQY-54" value="" style="rounded=0;whiteSpace=wrap;html=1;" vertex="1" parent="1">
          <mxGeometry x="1174" y="532.07" width="62" height="35" as="geometry" />
        </mxCell>
        <mxCell id="kJlHELFwxVph0XKdCQQY-55" value="" style="triangle;whiteSpace=wrap;html=1;rotation=90;" vertex="1" parent="1">
          <mxGeometry x="1192.82" y="515" width="25.12" height="59.25" as="geometry" />
        </mxCell>
        <mxCell id="kJlHELFwxVph0XKdCQQY-65" value="Productores" style="text;html=1;align=center;verticalAlign=middle;resizable=0;points=[];autosize=1;strokeColor=none;fillColor=none;" vertex="1" parent="1">
          <mxGeometry x="70" y="390" width="90" height="30" as="geometry" />
        </mxCell>
      </root>
    </mxGraphModel>
  </diagram>
</mxfile>
